<svg width="300" height="32" viewBox="0 0 300 32" fill="none" xmlns="http://www.w3.org/2000/svg">
<path d="M27.2683 3.59554H1.13618C0.50773 3.59554 0 4.10327 0 4.73172V30.8639C0 31.4923 0.50773 32 1.13618 32H27.2683C27.8968 32 28.4045 31.4923 28.4045 30.8639V4.73172C28.4045 4.10327 27.8968 3.59554 27.2683 3.59554ZM26.6667 30.2223H1.77778V5.33338H26.6667V30.2223Z" fill="#E11C4B"/>
<path d="M5.39323 0C4.67413 0 4.31458 0.359551 4.31458 1.07865V2.1573V3.23596H6.04441V1.77778H30.4L30.2222 25.9556H28.8V27.6854H30.9213C31.8202 27.6854 32 27.3258 32 26.2472V1.4382C32 0.359551 31.7343 0.00689603 30.7415 0H5.39323Z" fill="#E11C4B"/>
<path d="M45.2656 11.2578H47.1484C47.8047 11.2578 48.4115 11.3698 48.9688 11.5938C49.5312 11.8125 50.0208 12.125 50.4375 12.5312C50.8594 12.9375 51.1875 13.4219 51.4219 13.9844C51.6562 14.5417 51.7734 15.1589 51.7734 15.8359C51.7734 16.513 51.6562 17.1328 51.4219 17.6953C51.1875 18.2578 50.8594 18.7448 50.4375 19.1562C50.0208 19.5625 49.5312 19.8776 48.9688 20.1016C48.4115 20.3203 47.8047 20.4297 47.1484 20.4297H45.2656C44.6094 20.4297 44.0026 20.3203 43.4453 20.1016C42.888 19.8776 42.3984 19.5625 41.9766 19.1562C41.5599 18.75 41.2344 18.2682 41 17.7109C40.7708 17.1484 40.6562 16.5286 40.6562 15.8516C40.6562 15.1745 40.7708 14.5573 41 14C41.2344 13.4375 41.5599 12.9531 41.9766 12.5469C42.3984 12.1354 42.888 11.8177 43.4453 11.5938C44.0026 11.3698 44.6094 11.2578 45.2656 11.2578ZM45.2656 12.4453C44.5833 12.4453 44.0052 12.5885 43.5312 12.875C43.0573 13.1562 42.6979 13.5521 42.4531 14.0625C42.2083 14.5729 42.0859 15.1693 42.0859 15.8516C42.0859 16.3672 42.1536 16.8333 42.2891 17.25C42.4297 17.6667 42.6354 18.0234 42.9062 18.3203C43.1771 18.6172 43.5104 18.8464 43.9062 19.0078C44.3021 19.1693 44.7552 19.25 45.2656 19.25H47.1641C47.8411 19.25 48.4141 19.1094 48.8828 18.8281C49.3568 18.5417 49.7161 18.1432 49.9609 17.6328C50.2109 17.1172 50.3359 16.5182 50.3359 15.8359C50.3359 15.3255 50.2656 14.862 50.125 14.4453C49.9844 14.0286 49.7786 13.6719 49.5078 13.375C49.2422 13.0781 48.9115 12.849 48.5156 12.6875C48.125 12.526 47.6745 12.4453 47.1641 12.4453H45.2656ZM46.9375 9.65625V21.9688H45.4922V9.65625H46.9375ZM53.0781 17.3672V17.1875C53.0781 16.5781 53.1667 16.013 53.3438 15.4922C53.5208 14.9661 53.776 14.5104 54.1094 14.125C54.4427 13.7344 54.8464 13.4323 55.3203 13.2188C55.7943 13 56.3255 12.8906 56.9141 12.8906C57.5078 12.8906 58.0417 13 58.5156 13.2188C58.9948 13.4323 59.401 13.7344 59.7344 14.125C60.0729 14.5104 60.3307 14.9661 60.5078 15.4922C60.6849 16.013 60.7734 16.5781 60.7734 17.1875V17.3672C60.7734 17.9766 60.6849 18.5417 60.5078 19.0625C60.3307 19.5833 60.0729 20.0391 59.7344 20.4297C59.401 20.8151 58.9974 21.1172 58.5234 21.3359C58.0547 21.5495 57.5234 21.6562 56.9297 21.6562C56.3359 21.6562 55.8021 21.5495 55.3281 21.3359C54.8542 21.1172 54.4479 20.8151 54.1094 20.4297C53.776 20.0391 53.5208 19.5833 53.3438 19.0625C53.1667 18.5417 53.0781 17.9766 53.0781 17.3672ZM54.5234 17.1875V17.3672C54.5234 17.7891 54.5729 18.1875 54.6719 18.5625C54.7708 18.9323 54.9193 19.2604 55.1172 19.5469C55.3203 19.8333 55.5729 20.0599 55.875 20.2266C56.1771 20.388 56.5286 20.4688 56.9297 20.4688C57.3255 20.4688 57.6719 20.388 57.9688 20.2266C58.2708 20.0599 58.5208 19.8333 58.7188 19.5469C58.9167 19.2604 59.0651 18.9323 59.1641 18.5625C59.2682 18.1875 59.3203 17.7891 59.3203 17.3672V17.1875C59.3203 16.7708 59.2682 16.3776 59.1641 16.0078C59.0651 15.6328 58.9141 15.3021 58.7109 15.0156C58.513 14.724 58.263 14.4948 57.9609 14.3281C57.6641 14.1615 57.3151 14.0781 56.9141 14.0781C56.5182 14.0781 56.1693 14.1615 55.8672 14.3281C55.5703 14.4948 55.3203 14.724 55.1172 15.0156C54.9193 15.3021 54.7708 15.6328 54.6719 16.0078C54.5729 16.3776 54.5234 16.7708 54.5234 17.1875ZM65.8594 13.0469V21.5H64.4062V13.0469H65.8594ZM68.6953 13.0469V14.2188H61.625V13.0469H68.6953ZM69.4062 17.3672V17.1875C69.4062 16.5781 69.4948 16.013 69.6719 15.4922C69.849 14.9661 70.1042 14.5104 70.4375 14.125C70.7708 13.7344 71.1745 13.4323 71.6484 13.2188C72.1224 13 72.6536 12.8906 73.2422 12.8906C73.8359 12.8906 74.3698 13 74.8438 13.2188C75.3229 13.4323 75.7292 13.7344 76.0625 14.125C76.401 14.5104 76.6589 14.9661 76.8359 15.4922C77.013 16.013 77.1016 16.5781 77.1016 17.1875V17.3672C77.1016 17.9766 77.013 18.5417 76.8359 19.0625C76.6589 19.5833 76.401 20.0391 76.0625 20.4297C75.7292 20.8151 75.3255 21.1172 74.8516 21.3359C74.3828 21.5495 73.8516 21.6562 73.2578 21.6562C72.6641 21.6562 72.1302 21.5495 71.6562 21.3359C71.1823 21.1172 70.776 20.8151 70.4375 20.4297C70.1042 20.0391 69.849 19.5833 69.6719 19.0625C69.4948 18.5417 69.4062 17.9766 69.4062 17.3672ZM70.8516 17.1875V17.3672C70.8516 17.7891 70.901 18.1875 71 18.5625C71.099 18.9323 71.2474 19.2604 71.4453 19.5469C71.6484 19.8333 71.901 20.0599 72.2031 20.2266C72.5052 20.388 72.8568 20.4688 73.2578 20.4688C73.6536 20.4688 74 20.388 74.2969 20.2266C74.599 20.0599 74.849 19.8333 75.0469 19.5469C75.2448 19.2604 75.3932 18.9323 75.4922 18.5625C75.5964 18.1875 75.6484 17.7891 75.6484 17.3672V17.1875C75.6484 16.7708 75.5964 16.3776 75.4922 16.0078C75.3932 15.6328 75.2422 15.3021 75.0391 15.0156C74.8411 14.724 74.5911 14.4948 74.2891 14.3281C73.9922 14.1615 73.6432 14.0781 73.2422 14.0781C72.8464 14.0781 72.4974 14.1615 72.1953 14.3281C71.8984 14.4948 71.6484 14.724 71.4453 15.0156C71.2474 15.3021 71.099 15.6328 71 16.0078C70.901 16.3776 70.8516 16.7708 70.8516 17.1875ZM84.4453 19.2109L88.3438 13.0469H89.7969V21.5H88.3438V15.3359L84.4453 21.5H83.0078V13.0469H84.4453V19.2109ZM100.055 17.7812H97.2812L97.2656 16.625H99.5312C99.9792 16.625 100.352 16.5807 100.648 16.4922C100.951 16.4036 101.177 16.2708 101.328 16.0938C101.479 15.9167 101.555 15.6979 101.555 15.4375C101.555 15.2344 101.51 15.0573 101.422 14.9062C101.339 14.75 101.211 14.6224 101.039 14.5234C100.867 14.4193 100.654 14.3438 100.398 14.2969C100.148 14.2448 99.8542 14.2188 99.5156 14.2188H97.6641V21.5H96.2188V13.0469H99.5156C100.052 13.0469 100.534 13.0938 100.961 13.1875C101.393 13.2812 101.76 13.4245 102.062 13.6172C102.37 13.8047 102.604 14.0443 102.766 14.3359C102.927 14.6276 103.008 14.9714 103.008 15.3672C103.008 15.6224 102.956 15.8646 102.852 16.0938C102.747 16.3229 102.594 16.526 102.391 16.7031C102.188 16.8802 101.938 17.026 101.641 17.1406C101.344 17.25 101.003 17.3203 100.617 17.3516L100.055 17.7812ZM100.055 21.5H96.7578L97.4766 20.3281H100.055C100.456 20.3281 100.789 20.2786 101.055 20.1797C101.32 20.0755 101.518 19.9297 101.648 19.7422C101.784 19.5495 101.852 19.3203 101.852 19.0547C101.852 18.7891 101.784 18.5625 101.648 18.375C101.518 18.1823 101.32 18.0365 101.055 17.9375C100.789 17.8333 100.456 17.7812 100.055 17.7812H97.8594L97.875 16.625H100.617L101.141 17.0625C101.604 17.099 101.997 17.2135 102.32 17.4062C102.643 17.599 102.888 17.8438 103.055 18.1406C103.221 18.4323 103.305 18.75 103.305 19.0938C103.305 19.4896 103.229 19.8385 103.078 20.1406C102.932 20.4427 102.719 20.6953 102.438 20.8984C102.156 21.0964 101.815 21.2474 101.414 21.3516C101.013 21.4505 100.56 21.5 100.055 21.5ZM106.805 19.2109L110.703 13.0469H112.156V21.5H110.703V15.3359L106.805 21.5H105.367V13.0469H106.805V19.2109ZM116 13.0469H117.445L117.32 16.2109C117.289 17.013 117.198 17.7057 117.047 18.2891C116.896 18.8724 116.703 19.3698 116.469 19.7812C116.234 20.1875 115.971 20.5286 115.68 20.8047C115.393 21.0807 115.096 21.3125 114.789 21.5H114.07L114.109 20.3203L114.406 20.3125C114.578 20.1094 114.745 19.901 114.906 19.6875C115.068 19.4688 115.216 19.2109 115.352 18.9141C115.487 18.612 115.599 18.2448 115.688 17.8125C115.781 17.375 115.841 16.8411 115.867 16.2109L116 13.0469ZM116.359 13.0469H121.445V21.5H120V14.3828H116.359V13.0469ZM113.742 20.3125H122.531V23.9922H121.086V21.5H115.188V23.9922H113.734L113.742 20.3125ZM127.641 21.6562C127.052 21.6562 126.518 21.5573 126.039 21.3594C125.565 21.1562 125.156 20.8724 124.812 20.5078C124.474 20.1432 124.214 19.7109 124.031 19.2109C123.849 18.7109 123.758 18.1641 123.758 17.5703V17.2422C123.758 16.5547 123.859 15.9427 124.062 15.4062C124.266 14.8646 124.542 14.4062 124.891 14.0312C125.24 13.6562 125.635 13.3724 126.078 13.1797C126.521 12.987 126.979 12.8906 127.453 12.8906C128.057 12.8906 128.578 12.9948 129.016 13.2031C129.458 13.4115 129.82 13.7031 130.102 14.0781C130.383 14.4479 130.591 14.8854 130.727 15.3906C130.862 15.8906 130.93 16.4375 130.93 17.0312V17.6797H124.617V16.5H129.484V16.3906C129.464 16.0156 129.385 15.651 129.25 15.2969C129.12 14.9427 128.911 14.651 128.625 14.4219C128.339 14.1927 127.948 14.0781 127.453 14.0781C127.125 14.0781 126.823 14.1484 126.547 14.2891C126.271 14.4245 126.034 14.6276 125.836 14.8984C125.638 15.1693 125.484 15.5 125.375 15.8906C125.266 16.2812 125.211 16.7318 125.211 17.2422V17.5703C125.211 17.9714 125.266 18.349 125.375 18.7031C125.49 19.0521 125.654 19.3594 125.867 19.625C126.086 19.8906 126.349 20.099 126.656 20.25C126.969 20.401 127.323 20.4766 127.719 20.4766C128.229 20.4766 128.661 20.3724 129.016 20.1641C129.37 19.9557 129.68 19.6771 129.945 19.3281L130.82 20.0234C130.638 20.2995 130.406 20.5625 130.125 20.8125C129.844 21.0625 129.497 21.2656 129.086 21.4219C128.68 21.5781 128.198 21.6562 127.641 21.6562ZM132.234 17.3672V17.1875C132.234 16.5781 132.323 16.013 132.5 15.4922C132.677 14.9661 132.932 14.5104 133.266 14.125C133.599 13.7344 134.003 13.4323 134.477 13.2188C134.951 13 135.482 12.8906 136.07 12.8906C136.664 12.8906 137.198 13 137.672 13.2188C138.151 13.4323 138.557 13.7344 138.891 14.125C139.229 14.5104 139.487 14.9661 139.664 15.4922C139.841 16.013 139.93 16.5781 139.93 17.1875V17.3672C139.93 17.9766 139.841 18.5417 139.664 19.0625C139.487 19.5833 139.229 20.0391 138.891 20.4297C138.557 20.8151 138.154 21.1172 137.68 21.3359C137.211 21.5495 136.68 21.6562 136.086 21.6562C135.492 21.6562 134.958 21.5495 134.484 21.3359C134.01 21.1172 133.604 20.8151 133.266 20.4297C132.932 20.0391 132.677 19.5833 132.5 19.0625C132.323 18.5417 132.234 17.9766 132.234 17.3672ZM133.68 17.1875V17.3672C133.68 17.7891 133.729 18.1875 133.828 18.5625C133.927 18.9323 134.076 19.2604 134.273 19.5469C134.477 19.8333 134.729 20.0599 135.031 20.2266C135.333 20.388 135.685 20.4688 136.086 20.4688C136.482 20.4688 136.828 20.388 137.125 20.2266C137.427 20.0599 137.677 19.8333 137.875 19.5469C138.073 19.2604 138.221 18.9323 138.32 18.5625C138.424 18.1875 138.477 17.7891 138.477 17.3672V17.1875C138.477 16.7708 138.424 16.3776 138.32 16.0078C138.221 15.6328 138.07 15.3021 137.867 15.0156C137.669 14.724 137.419 14.4948 137.117 14.3281C136.82 14.1615 136.471 14.0781 136.07 14.0781C135.674 14.0781 135.326 14.1615 135.023 14.3281C134.727 14.4948 134.477 14.724 134.273 15.0156C134.076 15.3021 133.927 15.6328 133.828 16.0078C133.729 16.3776 133.68 16.7708 133.68 17.1875ZM145.016 13.0469V21.5H143.562V13.0469H145.016ZM147.852 13.0469V14.2188H140.781V13.0469H147.852ZM152.156 21.6562C151.568 21.6562 151.034 21.5573 150.555 21.3594C150.081 21.1562 149.672 20.8724 149.328 20.5078C148.99 20.1432 148.729 19.7109 148.547 19.2109C148.365 18.7109 148.273 18.1641 148.273 17.5703V17.2422C148.273 16.5547 148.375 15.9427 148.578 15.4062C148.781 14.8646 149.057 14.4062 149.406 14.0312C149.755 13.6562 150.151 13.3724 150.594 13.1797C151.036 12.987 151.495 12.8906 151.969 12.8906C152.573 12.8906 153.094 12.9948 153.531 13.2031C153.974 13.4115 154.336 13.7031 154.617 14.0781C154.898 14.4479 155.107 14.8854 155.242 15.3906C155.378 15.8906 155.445 16.4375 155.445 17.0312V17.6797H149.133V16.5H154V16.3906C153.979 16.0156 153.901 15.651 153.766 15.2969C153.635 14.9427 153.427 14.651 153.141 14.4219C152.854 14.1927 152.464 14.0781 151.969 14.0781C151.641 14.0781 151.339 14.1484 151.062 14.2891C150.786 14.4245 150.549 14.6276 150.352 14.8984C150.154 15.1693 150 15.5 149.891 15.8906C149.781 16.2812 149.727 16.7318 149.727 17.2422V17.5703C149.727 17.9714 149.781 18.349 149.891 18.7031C150.005 19.0521 150.169 19.3594 150.383 19.625C150.602 19.8906 150.865 20.099 151.172 20.25C151.484 20.401 151.839 20.4766 152.234 20.4766C152.745 20.4766 153.177 20.3724 153.531 20.1641C153.885 19.9557 154.195 19.6771 154.461 19.3281L155.336 20.0234C155.154 20.2995 154.922 20.5625 154.641 20.8125C154.359 21.0625 154.013 21.2656 153.602 21.4219C153.195 21.5781 152.714 21.6562 152.156 21.6562ZM158.109 13.0469L159.961 16.125L161.836 13.0469H163.531L160.766 17.2188L163.617 21.5H161.945L159.992 18.3281L158.039 21.5H156.359L159.203 17.2188L156.445 13.0469H158.109ZM170.805 16.7109V17.8828H166.336V16.7109H170.805ZM166.641 13.0469V21.5H165.195V13.0469H166.641ZM171.977 13.0469V21.5H170.523V13.0469H171.977ZM175.867 19.2109L179.766 13.0469H181.219V21.5H179.766V15.3359L175.867 21.5H174.43V13.0469H175.867V19.2109ZM185.109 13.0469V21.5H183.664V13.0469H185.109ZM190.656 13.0469L186.648 17.8906H184.625L184.406 16.625H186.062L188.898 13.0469H190.656ZM189.102 21.5L185.992 17.6719L186.922 16.625L190.938 21.5H189.102ZM197.18 20.0547V15.7031C197.18 15.3698 197.112 15.0807 196.977 14.8359C196.846 14.5859 196.648 14.3932 196.383 14.2578C196.117 14.1224 195.789 14.0547 195.398 14.0547C195.034 14.0547 194.714 14.1172 194.438 14.2422C194.167 14.3672 193.953 14.5312 193.797 14.7344C193.646 14.9375 193.57 15.1562 193.57 15.3906H192.125C192.125 15.0885 192.203 14.7891 192.359 14.4922C192.516 14.1953 192.74 13.9271 193.031 13.6875C193.328 13.4427 193.682 13.25 194.094 13.1094C194.51 12.9635 194.974 12.8906 195.484 12.8906C196.099 12.8906 196.641 12.9948 197.109 13.2031C197.583 13.4115 197.953 13.7266 198.219 14.1484C198.49 14.5651 198.625 15.0885 198.625 15.7188V19.6562C198.625 19.9375 198.648 20.237 198.695 20.5547C198.747 20.8724 198.823 21.1458 198.922 21.375V21.5H197.414C197.341 21.3333 197.284 21.112 197.242 20.8359C197.201 20.5547 197.18 20.2943 197.18 20.0547ZM197.43 16.375L197.445 17.3906H195.984C195.573 17.3906 195.206 17.4245 194.883 17.4922C194.56 17.5547 194.289 17.651 194.07 17.7812C193.852 17.9115 193.685 18.0755 193.57 18.2734C193.456 18.4661 193.398 18.6927 193.398 18.9531C193.398 19.2188 193.458 19.4609 193.578 19.6797C193.698 19.8984 193.878 20.0729 194.117 20.2031C194.362 20.3281 194.661 20.3906 195.016 20.3906C195.458 20.3906 195.849 20.2969 196.188 20.1094C196.526 19.9219 196.794 19.6927 196.992 19.4219C197.195 19.151 197.305 18.888 197.32 18.6328L197.938 19.3281C197.901 19.5469 197.802 19.7891 197.641 20.0547C197.479 20.3203 197.263 20.5755 196.992 20.8203C196.727 21.0599 196.409 21.2604 196.039 21.4219C195.674 21.5781 195.263 21.6562 194.805 21.6562C194.232 21.6562 193.729 21.5443 193.297 21.3203C192.87 21.0964 192.536 20.7969 192.297 20.4219C192.062 20.0417 191.945 19.6172 191.945 19.1484C191.945 18.6953 192.034 18.2969 192.211 17.9531C192.388 17.6042 192.643 17.3151 192.977 17.0859C193.31 16.8516 193.711 16.6745 194.18 16.5547C194.648 16.4349 195.172 16.375 195.75 16.375H197.43Z" fill="#333333"/>
<path d="M293.135 23.4981C292.87 23.4986 292.614 23.4116 292.41 23.2522C292.295 23.1624 292.2 23.0522 292.131 22.9278C292.061 22.8035 292.018 22.6674 292.005 22.5273C291.991 22.3873 292.007 22.2461 292.051 22.1118C292.095 21.9776 292.167 21.8528 292.263 21.7448L297.34 16.0147L292.444 10.2738C292.35 10.1645 292.28 10.0386 292.237 9.90358C292.195 9.76852 292.181 9.62688 292.197 9.4868C292.213 9.34672 292.258 9.21097 292.329 9.08735C292.401 8.96373 292.498 8.85467 292.614 8.76645C292.731 8.66913 292.869 8.59572 293.017 8.55083C293.166 8.50594 293.323 8.49054 293.478 8.5056C293.634 8.52066 293.784 8.56584 293.92 8.63833C294.056 8.71081 294.175 8.80903 294.269 8.92681L299.742 15.3412C299.909 15.5324 300 15.7724 300 16.02C300 16.2676 299.909 16.5076 299.742 16.6989L294.076 23.1132C293.962 23.2426 293.818 23.3448 293.654 23.4117C293.491 23.4786 293.313 23.5082 293.135 23.4981Z" fill="#8D8D8D"/>
</svg>
