<svg width="431" height="272" viewBox="0 0 431 272" fill="none" xmlns="http://www.w3.org/2000/svg">
<g filter="url(#filter0_d_1_911)">
<rect x="35.9945" y="29.9854" width="359.011" height="200.044" rx="9.9449" fill="white"/>
<rect x="35" y="28.9909" width="361" height="202.033" rx="10.9394" stroke="#E11C4B" stroke-width="1.98898"/>
</g>
<path d="M165.048 100.855V103.137H158.016V100.855H165.048ZM167.126 100.855V114.995H164.213V100.855H167.126ZM157.647 100.855H160.551L160.192 107.954C160.14 109.016 160.04 109.938 159.891 110.722C159.748 111.505 159.554 112.172 159.308 112.723C159.062 113.266 158.758 113.707 158.395 114.043C158.039 114.374 157.618 114.616 157.133 114.772C156.647 114.921 156.094 114.995 155.472 114.995H154.753V112.723L155.122 112.693C155.44 112.661 155.718 112.577 155.958 112.441C156.197 112.305 156.401 112.101 156.569 111.829C156.744 111.557 156.887 111.211 156.997 110.79C157.113 110.363 157.204 109.841 157.269 109.226C157.34 108.611 157.388 107.893 157.414 107.07L157.647 100.855ZM172.273 111.091L175.799 104.487H178.596V114.995H175.799V108.381L172.273 114.995H169.476V104.487H172.273V111.091ZM183.733 104.487V114.995H180.936V104.487H183.733ZM190.561 104.487L186.035 111.062H183.238L182.898 108.478H184.753L187.016 104.487H190.561ZM187.142 114.995L184.559 110.557L186.997 109.207L190.891 114.995H187.142ZM197.175 110.605H193.882L193.863 108.77H196.582C196.945 108.77 197.239 108.734 197.466 108.663C197.693 108.585 197.858 108.472 197.961 108.323C198.071 108.168 198.126 107.98 198.126 107.76C198.126 107.566 198.091 107.4 198.019 107.265C197.955 107.122 197.854 107.006 197.718 106.915C197.582 106.824 197.411 106.759 197.204 106.721C197.003 106.675 196.767 106.653 196.495 106.653H194.921V114.995H192.124V104.487H196.495C197.181 104.487 197.796 104.548 198.34 104.671C198.884 104.788 199.347 104.966 199.729 105.206C200.117 105.445 200.412 105.749 200.613 106.119C200.82 106.481 200.923 106.912 200.923 107.41C200.923 107.734 200.849 108.038 200.7 108.323C200.557 108.608 200.344 108.86 200.059 109.081C199.774 109.301 199.421 109.482 199 109.624C198.586 109.76 198.107 109.845 197.563 109.877L197.175 110.605ZM197.175 114.995H193.193L194.154 112.829H197.175C197.518 112.829 197.799 112.787 198.019 112.703C198.24 112.619 198.401 112.496 198.505 112.334C198.615 112.166 198.67 111.965 198.67 111.732C198.67 111.505 198.622 111.308 198.524 111.14C198.427 110.971 198.269 110.842 198.049 110.751C197.835 110.654 197.544 110.605 197.175 110.605H194.562L194.581 108.77H197.553L198.233 109.508C198.971 109.553 199.58 109.692 200.059 109.926C200.538 110.159 200.891 110.456 201.118 110.819C201.351 111.175 201.467 111.567 201.467 111.994C201.467 112.493 201.373 112.93 201.186 113.305C200.998 113.681 200.719 113.995 200.35 114.247C199.988 114.493 199.541 114.681 199.01 114.811C198.479 114.934 197.867 114.995 197.175 114.995ZM205.973 111.091L209.499 104.487H212.296V114.995H209.499V108.381L205.973 114.995H203.176V104.487H205.973V111.091ZM216.346 104.487H219.143L219.055 108.003C219.029 109.129 218.9 110.097 218.667 110.906C218.434 111.716 218.123 112.396 217.734 112.946C217.346 113.496 216.902 113.937 216.404 114.267C215.912 114.59 215.394 114.833 214.85 114.995H214.326L214.296 112.839L214.588 112.81C214.918 112.467 215.19 112.133 215.404 111.81C215.617 111.479 215.782 111.133 215.899 110.77C216.015 110.408 216.1 110.003 216.151 109.556C216.21 109.11 216.245 108.592 216.258 108.003L216.346 104.487ZM217.103 104.487H224.067V114.995H221.279V106.73H217.103V104.487ZM213.685 112.81H225.572V118.151H222.775V114.995H216.55V118.151H213.685V112.81ZM232.671 112.625V107.944C232.671 107.608 232.616 107.32 232.506 107.08C232.396 106.834 232.225 106.643 231.991 106.507C231.765 106.371 231.47 106.303 231.108 106.303C230.797 106.303 230.528 106.358 230.302 106.468C230.075 106.572 229.9 106.724 229.777 106.925C229.654 107.119 229.593 107.349 229.593 107.614H226.796C226.796 107.167 226.899 106.743 227.106 106.342C227.314 105.94 227.615 105.588 228.01 105.283C228.405 104.973 228.874 104.73 229.418 104.555C229.968 104.38 230.583 104.293 231.263 104.293C232.079 104.293 232.804 104.429 233.438 104.701C234.073 104.973 234.572 105.38 234.934 105.924C235.303 106.468 235.488 107.148 235.488 107.964V112.46C235.488 113.037 235.523 113.509 235.595 113.878C235.666 114.241 235.769 114.558 235.905 114.83V114.995H233.079C232.943 114.71 232.84 114.354 232.768 113.927C232.704 113.493 232.671 113.059 232.671 112.625ZM233.04 108.595L233.06 110.178H231.496C231.127 110.178 230.807 110.22 230.535 110.304C230.263 110.388 230.039 110.508 229.865 110.664C229.69 110.813 229.56 110.987 229.476 111.188C229.398 111.389 229.36 111.609 229.36 111.848C229.36 112.088 229.415 112.305 229.525 112.499C229.635 112.687 229.793 112.836 230 112.946C230.208 113.05 230.45 113.101 230.729 113.101C231.15 113.101 231.516 113.017 231.826 112.849C232.137 112.68 232.377 112.473 232.545 112.227C232.72 111.981 232.81 111.748 232.817 111.528L233.555 112.713C233.451 112.978 233.309 113.253 233.128 113.538C232.953 113.823 232.73 114.092 232.458 114.344C232.186 114.59 231.859 114.794 231.477 114.956C231.095 115.112 230.641 115.189 230.117 115.189C229.45 115.189 228.845 115.057 228.301 114.791C227.764 114.519 227.336 114.147 227.019 113.674C226.708 113.195 226.553 112.651 226.553 112.043C226.553 111.492 226.656 111.004 226.864 110.576C227.071 110.149 227.375 109.79 227.776 109.498C228.184 109.2 228.693 108.977 229.301 108.828C229.91 108.673 230.616 108.595 231.418 108.595H233.04ZM237.634 114.995V104.487H240.431V112.81H243.947V104.487H246.753V114.995H237.634ZM248.327 112.82L248.142 118.113H245.539V114.995H244.364V112.82H248.327ZM252.532 111.091L256.057 104.487H258.854V114.995H256.057V108.381L252.532 114.995H249.735V104.487H252.532V111.091ZM263.273 109.751H266.109L263.186 114.995H260.36L263.273 109.751ZM265.157 104.487H269.77V114.995H266.973V106.653H265.157C264.775 106.653 264.458 106.724 264.206 106.866C263.953 107.002 263.765 107.18 263.642 107.4C263.526 107.614 263.467 107.834 263.467 108.061C263.467 108.281 263.526 108.495 263.642 108.702C263.759 108.909 263.94 109.081 264.186 109.217C264.432 109.353 264.74 109.421 265.109 109.421H268.013V111.324H265.109C264.416 111.324 263.794 111.24 263.244 111.072C262.7 110.903 262.234 110.67 261.846 110.372C261.464 110.068 261.169 109.715 260.962 109.314C260.761 108.906 260.661 108.459 260.661 107.973C260.661 107.468 260.764 107.006 260.971 106.585C261.179 106.164 261.477 105.795 261.865 105.478C262.253 105.16 262.723 104.917 263.273 104.749C263.83 104.574 264.458 104.487 265.157 104.487ZM275.296 100.855L274.976 110.673H272.645L272.315 100.855H275.296ZM272.237 113.713C272.237 113.299 272.38 112.956 272.665 112.684C272.956 112.405 273.338 112.266 273.811 112.266C274.29 112.266 274.672 112.405 274.957 112.684C275.241 112.956 275.384 113.299 275.384 113.713C275.384 114.115 275.241 114.454 274.957 114.733C274.672 115.011 274.29 115.151 273.811 115.151C273.338 115.151 272.956 115.011 272.665 114.733C272.38 114.454 272.237 114.115 272.237 113.713ZM154.064 133.304H156.968C156.909 134.256 156.647 135.101 156.181 135.839C155.721 136.577 155.077 137.153 154.248 137.568C153.426 137.982 152.435 138.189 151.276 138.189C150.37 138.189 149.557 138.034 148.839 137.723C148.12 137.406 147.505 136.953 146.994 136.364C146.489 135.774 146.103 135.062 145.838 134.227C145.572 133.392 145.44 132.456 145.44 131.42V130.439C145.44 129.403 145.576 128.468 145.848 127.633C146.126 126.791 146.521 126.075 147.032 125.486C147.55 124.897 148.169 124.444 148.887 124.127C149.606 123.809 150.409 123.651 151.296 123.651C152.474 123.651 153.468 123.864 154.277 124.292C155.093 124.719 155.725 125.308 156.171 126.059C156.624 126.81 156.896 127.665 156.987 128.623H154.073C154.041 128.053 153.928 127.571 153.734 127.176C153.539 126.775 153.245 126.474 152.85 126.273C152.461 126.066 151.943 125.962 151.296 125.962C150.81 125.962 150.386 126.053 150.024 126.234C149.661 126.415 149.357 126.691 149.111 127.06C148.865 127.429 148.68 127.895 148.557 128.458C148.441 129.015 148.382 129.669 148.382 130.42V131.42C148.382 132.152 148.437 132.796 148.547 133.353C148.658 133.903 148.826 134.369 149.052 134.751C149.286 135.127 149.583 135.412 149.946 135.606C150.315 135.794 150.759 135.888 151.276 135.888C151.885 135.888 152.387 135.791 152.782 135.596C153.177 135.402 153.478 135.114 153.685 134.732C153.899 134.35 154.025 133.874 154.064 133.304ZM161.688 127.487V137.995H158.891V127.487H161.688ZM168.515 127.487L163.989 134.062H161.192L160.852 131.478H162.707L164.97 127.487H168.515ZM165.096 137.995L162.513 133.557L164.951 132.207L168.845 137.995H165.096ZM172.681 134.091L176.207 127.487H179.004V137.995H176.207V131.381L172.681 137.995H169.884V127.487H172.681V134.091ZM183.054 127.487H185.851L185.763 131.003C185.737 132.129 185.608 133.097 185.375 133.906C185.142 134.716 184.831 135.396 184.442 135.946C184.054 136.496 183.61 136.937 183.112 137.267C182.62 137.59 182.102 137.833 181.558 137.995H181.034L181.004 135.839L181.296 135.81C181.626 135.467 181.898 135.133 182.112 134.81C182.325 134.479 182.49 134.133 182.607 133.77C182.723 133.408 182.808 133.003 182.859 132.556C182.918 132.11 182.953 131.592 182.966 131.003L183.054 127.487ZM183.811 127.487H190.774V137.995H187.987V129.73H183.811V127.487ZM180.393 135.81H192.28V141.151H189.483V137.995H183.258V141.151H180.393V135.81ZM196.572 127.487V137.995H193.775V127.487H196.572ZM203.4 127.487L198.874 134.062H196.077L195.737 131.478H197.592L199.855 127.487H203.4ZM199.981 137.995L197.398 133.557L199.836 132.207L203.73 137.995H199.981ZM207.566 134.091L211.092 127.487H213.889V137.995H211.092V131.381L207.566 137.995H204.769V127.487H207.566V134.091ZM222.891 127.487H225.688L225.601 131.003C225.575 132.129 225.446 133.097 225.213 133.906C224.979 134.716 224.669 135.396 224.28 135.946C223.892 136.496 223.448 136.937 222.95 137.267C222.458 137.59 221.94 137.833 221.396 137.995H220.871L220.842 135.839L221.134 135.81C221.464 135.467 221.736 135.133 221.949 134.81C222.163 134.479 222.328 134.133 222.445 133.77C222.561 133.408 222.645 133.003 222.697 132.556C222.755 132.11 222.791 131.592 222.804 131.003L222.891 127.487ZM223.649 127.487H230.612V137.995H227.825V129.73H223.649V127.487ZM220.23 135.81H232.118V141.151H229.321V137.995H223.095V141.151H220.23V135.81ZM233.099 132.848V132.644C233.099 131.873 233.209 131.164 233.429 130.517C233.649 129.863 233.969 129.297 234.39 128.817C234.811 128.338 235.329 127.966 235.944 127.701C236.559 127.429 237.265 127.293 238.061 127.293C238.858 127.293 239.567 127.429 240.188 127.701C240.81 127.966 241.331 128.338 241.752 128.817C242.179 129.297 242.503 129.863 242.723 130.517C242.943 131.164 243.053 131.873 243.053 132.644V132.848C243.053 133.612 242.943 134.321 242.723 134.975C242.503 135.622 242.179 136.189 241.752 136.674C241.331 137.153 240.813 137.526 240.198 137.791C239.583 138.057 238.877 138.189 238.081 138.189C237.284 138.189 236.575 138.057 235.954 137.791C235.339 137.526 234.818 137.153 234.39 136.674C233.969 136.189 233.649 135.622 233.429 134.975C233.209 134.321 233.099 133.612 233.099 132.848ZM235.896 132.644V132.848C235.896 133.288 235.934 133.699 236.012 134.081C236.09 134.463 236.213 134.8 236.381 135.091C236.556 135.376 236.783 135.6 237.061 135.761C237.339 135.923 237.679 136.004 238.081 136.004C238.469 136.004 238.803 135.923 239.081 135.761C239.359 135.6 239.583 135.376 239.751 135.091C239.92 134.8 240.043 134.463 240.12 134.081C240.204 133.699 240.246 133.288 240.246 132.848V132.644C240.246 132.217 240.204 131.815 240.12 131.44C240.043 131.058 239.916 130.721 239.741 130.43C239.573 130.132 239.35 129.899 239.071 129.73C238.793 129.562 238.456 129.478 238.061 129.478C237.666 129.478 237.33 129.562 237.051 129.73C236.779 129.899 236.556 130.132 236.381 130.43C236.213 130.721 236.09 131.058 236.012 131.44C235.934 131.815 235.896 132.217 235.896 132.644ZM259.214 123.855V125.36L253.746 137.995H250.794L256.261 126.04H249.22V123.855H259.214ZM270.547 129.682V132.129C270.547 133.191 270.434 134.107 270.207 134.878C269.981 135.642 269.654 136.27 269.227 136.762C268.806 137.247 268.304 137.607 267.721 137.84C267.139 138.073 266.491 138.189 265.779 138.189C265.209 138.189 264.678 138.118 264.186 137.976C263.694 137.827 263.251 137.597 262.856 137.286C262.467 136.975 262.13 136.584 261.846 136.111C261.567 135.632 261.353 135.062 261.205 134.402C261.056 133.741 260.981 132.984 260.981 132.129V129.682C260.981 128.62 261.095 127.71 261.321 126.953C261.554 126.189 261.881 125.564 262.302 125.078C262.729 124.593 263.234 124.237 263.817 124.01C264.4 123.777 265.047 123.66 265.759 123.66C266.329 123.66 266.857 123.735 267.342 123.884C267.835 124.026 268.278 124.25 268.673 124.554C269.068 124.858 269.405 125.25 269.683 125.729C269.961 126.202 270.175 126.768 270.324 127.429C270.473 128.083 270.547 128.834 270.547 129.682ZM267.741 132.498V129.303C267.741 128.792 267.712 128.345 267.653 127.963C267.601 127.581 267.521 127.257 267.41 126.992C267.3 126.72 267.164 126.5 267.003 126.331C266.841 126.163 266.656 126.04 266.449 125.962C266.242 125.884 266.012 125.846 265.759 125.846C265.442 125.846 265.161 125.907 264.914 126.03C264.675 126.153 264.471 126.351 264.303 126.623C264.134 126.888 264.005 127.244 263.914 127.691C263.83 128.131 263.788 128.669 263.788 129.303V132.498C263.788 133.01 263.814 133.46 263.866 133.848C263.924 134.237 264.008 134.57 264.118 134.848C264.235 135.12 264.371 135.344 264.526 135.519C264.688 135.687 264.872 135.81 265.08 135.888C265.293 135.965 265.526 136.004 265.779 136.004C266.09 136.004 266.365 135.943 266.604 135.82C266.85 135.69 267.058 135.489 267.226 135.218C267.401 134.939 267.53 134.577 267.614 134.13C267.699 133.683 267.741 133.139 267.741 132.498ZM272.412 127.322V126.574C272.412 126.037 272.529 125.548 272.762 125.108C272.995 124.667 273.338 124.314 273.791 124.049C274.244 123.783 274.801 123.651 275.462 123.651C276.141 123.651 276.708 123.783 277.161 124.049C277.621 124.314 277.964 124.667 278.191 125.108C278.424 125.548 278.54 126.037 278.54 126.574V127.322C278.54 127.846 278.424 128.329 278.191 128.769C277.964 129.209 277.624 129.562 277.171 129.827C276.718 130.093 276.154 130.226 275.481 130.226C274.814 130.226 274.251 130.093 273.791 129.827C273.338 129.562 272.995 129.209 272.762 128.769C272.529 128.329 272.412 127.846 272.412 127.322ZM274.267 126.574V127.322C274.267 127.548 274.309 127.765 274.393 127.973C274.484 128.173 274.62 128.338 274.801 128.468C274.989 128.591 275.215 128.652 275.481 128.652C275.759 128.652 275.986 128.591 276.161 128.468C276.336 128.338 276.465 128.173 276.549 127.973C276.633 127.765 276.676 127.548 276.676 127.322V126.574C276.676 126.334 276.63 126.114 276.54 125.914C276.455 125.706 276.323 125.541 276.141 125.418C275.967 125.289 275.74 125.224 275.462 125.224C275.203 125.224 274.982 125.289 274.801 125.418C274.62 125.541 274.484 125.706 274.393 125.914C274.309 126.114 274.267 126.334 274.267 126.574ZM279.171 135.276V134.528C279.171 133.997 279.288 133.511 279.521 133.071C279.761 132.631 280.107 132.278 280.56 132.013C281.02 131.747 281.583 131.614 282.25 131.614C282.923 131.614 283.487 131.747 283.94 132.013C284.393 132.278 284.736 132.631 284.969 133.071C285.202 133.511 285.319 133.997 285.319 134.528V135.276C285.319 135.807 285.202 136.292 284.969 136.733C284.743 137.173 284.403 137.526 283.95 137.791C283.496 138.057 282.936 138.189 282.27 138.189C281.596 138.189 281.03 138.057 280.57 137.791C280.11 137.526 279.761 137.173 279.521 136.733C279.288 136.292 279.171 135.807 279.171 135.276ZM281.036 134.528V135.276C281.036 135.509 281.088 135.729 281.192 135.936C281.295 136.143 281.438 136.308 281.619 136.432C281.807 136.555 282.023 136.616 282.27 136.616C282.58 136.616 282.823 136.555 282.998 136.432C283.173 136.308 283.292 136.143 283.357 135.936C283.428 135.729 283.464 135.509 283.464 135.276V134.528C283.464 134.295 283.419 134.078 283.328 133.877C283.237 133.67 283.101 133.505 282.92 133.382C282.745 133.253 282.522 133.188 282.25 133.188C281.978 133.188 281.752 133.253 281.57 133.382C281.395 133.505 281.263 133.67 281.172 133.877C281.081 134.078 281.036 134.295 281.036 134.528ZM282.94 125.875L276.035 136.927L274.675 136.208L281.58 125.156L282.94 125.875Z" fill="#E11C4B"/>
<path d="M147.46 159.504C147.695 159.504 147.912 159.456 148.112 159.359C148.311 159.263 148.475 159.132 148.603 158.964C148.731 158.793 148.804 158.599 148.822 158.382H149.762C149.744 158.724 149.629 159.043 149.415 159.338C149.205 159.63 148.929 159.867 148.587 160.048C148.245 160.227 147.869 160.316 147.46 160.316C147.026 160.316 146.646 160.239 146.322 160.086C146.002 159.933 145.735 159.723 145.521 159.456C145.311 159.189 145.152 158.882 145.046 158.537C144.942 158.188 144.891 157.819 144.891 157.431V157.207C144.891 156.819 144.942 156.452 145.046 156.106C145.152 155.757 145.311 155.449 145.521 155.182C145.735 154.915 146.002 154.705 146.322 154.552C146.646 154.399 147.026 154.322 147.46 154.322C147.912 154.322 148.307 154.415 148.646 154.6C148.984 154.782 149.249 155.031 149.442 155.348C149.637 155.661 149.744 156.017 149.762 156.416H148.822C148.804 156.178 148.737 155.962 148.619 155.77C148.505 155.578 148.348 155.425 148.149 155.311C147.953 155.193 147.723 155.134 147.46 155.134C147.157 155.134 146.903 155.195 146.696 155.316C146.493 155.433 146.331 155.594 146.21 155.797C146.093 155.996 146.007 156.219 145.954 156.464C145.904 156.706 145.879 156.954 145.879 157.207V157.431C145.879 157.684 145.904 157.933 145.954 158.179C146.003 158.425 146.087 158.647 146.205 158.847C146.326 159.046 146.488 159.206 146.691 159.327C146.897 159.445 147.154 159.504 147.46 159.504ZM161.289 159.397V160.209H156.199V159.498L158.747 156.662C159.06 156.313 159.302 156.017 159.473 155.775C159.647 155.53 159.769 155.311 159.836 155.118C159.907 154.922 159.943 154.723 159.943 154.52C159.943 154.264 159.89 154.032 159.783 153.826C159.68 153.616 159.526 153.448 159.323 153.324C159.12 153.199 158.875 153.137 158.586 153.137C158.241 153.137 157.952 153.204 157.721 153.34C157.493 153.471 157.322 153.656 157.208 153.895C157.094 154.134 157.037 154.408 157.037 154.718H156.049C156.049 154.28 156.145 153.879 156.338 153.516C156.53 153.153 156.815 152.864 157.192 152.651C157.57 152.433 158.034 152.325 158.586 152.325C159.078 152.325 159.498 152.412 159.847 152.586C160.196 152.757 160.463 152.999 160.648 153.313C160.837 153.623 160.931 153.986 160.931 154.403C160.931 154.63 160.892 154.862 160.814 155.097C160.739 155.328 160.634 155.56 160.499 155.791C160.367 156.023 160.212 156.251 160.034 156.475C159.859 156.699 159.672 156.92 159.473 157.137L157.39 159.397H161.289ZM167.25 158.104C167.25 158.578 167.14 158.98 166.919 159.311C166.702 159.639 166.406 159.888 166.032 160.059C165.662 160.23 165.244 160.316 164.777 160.316C164.311 160.316 163.89 160.23 163.516 160.059C163.143 159.888 162.847 159.639 162.63 159.311C162.413 158.98 162.304 158.578 162.304 158.104C162.304 157.794 162.363 157.511 162.48 157.255C162.601 156.995 162.77 156.769 162.988 156.577C163.208 156.384 163.468 156.236 163.768 156.133C164.07 156.026 164.403 155.973 164.766 155.973C165.244 155.973 165.669 156.066 166.043 156.251C166.417 156.432 166.711 156.683 166.924 157.004C167.142 157.324 167.25 157.691 167.25 158.104ZM166.257 158.083C166.257 157.794 166.194 157.54 166.07 157.319C165.945 157.095 165.771 156.92 165.546 156.796C165.322 156.671 165.062 156.609 164.766 156.609C164.464 156.609 164.202 156.671 163.981 156.796C163.764 156.92 163.595 157.095 163.474 157.319C163.353 157.54 163.292 157.794 163.292 158.083C163.292 158.382 163.351 158.638 163.468 158.852C163.589 159.062 163.76 159.224 163.981 159.338C164.206 159.448 164.471 159.504 164.777 159.504C165.083 159.504 165.347 159.448 165.568 159.338C165.788 159.224 165.958 159.062 166.075 158.852C166.196 158.638 166.257 158.382 166.257 158.083ZM167.069 154.456C167.069 154.833 166.969 155.173 166.769 155.476C166.57 155.779 166.298 156.017 165.952 156.192C165.607 156.366 165.215 156.454 164.777 156.454C164.332 156.454 163.935 156.366 163.586 156.192C163.241 156.017 162.97 155.779 162.774 155.476C162.578 155.173 162.48 154.833 162.48 154.456C162.48 154.004 162.578 153.619 162.774 153.302C162.973 152.985 163.246 152.743 163.591 152.576C163.937 152.408 164.33 152.325 164.772 152.325C165.217 152.325 165.612 152.408 165.958 152.576C166.303 152.743 166.574 152.985 166.769 153.302C166.969 153.619 167.069 154.004 167.069 154.456ZM166.08 154.472C166.08 154.212 166.025 153.982 165.915 153.783C165.804 153.583 165.651 153.427 165.455 153.313C165.26 153.195 165.032 153.137 164.772 153.137C164.512 153.137 164.284 153.192 164.088 153.302C163.896 153.409 163.744 153.562 163.634 153.762C163.527 153.961 163.474 154.198 163.474 154.472C163.474 154.739 163.527 154.972 163.634 155.172C163.744 155.371 163.898 155.526 164.093 155.636C164.289 155.747 164.517 155.802 164.777 155.802C165.037 155.802 165.263 155.747 165.455 155.636C165.651 155.526 165.804 155.371 165.915 155.172C166.025 154.972 166.08 154.739 166.08 154.472ZM173.633 159.504C173.868 159.504 174.086 159.456 174.285 159.359C174.484 159.263 174.648 159.132 174.776 158.964C174.905 158.793 174.978 158.599 174.995 158.382H175.935C175.918 158.724 175.802 159.043 175.588 159.338C175.378 159.63 175.102 159.867 174.76 160.048C174.418 160.227 174.043 160.316 173.633 160.316C173.199 160.316 172.82 160.239 172.496 160.086C172.175 159.933 171.908 159.723 171.694 159.456C171.484 159.189 171.326 158.882 171.219 158.537C171.116 158.188 171.064 157.819 171.064 157.431V157.207C171.064 156.819 171.116 156.452 171.219 156.106C171.326 155.757 171.484 155.449 171.694 155.182C171.908 154.915 172.175 154.705 172.496 154.552C172.82 154.399 173.199 154.322 173.633 154.322C174.086 154.322 174.481 154.415 174.819 154.6C175.157 154.782 175.423 155.031 175.615 155.348C175.811 155.661 175.918 156.017 175.935 156.416H174.995C174.978 156.178 174.91 155.962 174.792 155.77C174.678 155.578 174.522 155.425 174.322 155.311C174.126 155.193 173.897 155.134 173.633 155.134C173.331 155.134 173.076 155.195 172.869 155.316C172.666 155.433 172.504 155.594 172.383 155.797C172.266 155.996 172.18 156.219 172.127 156.464C172.077 156.706 172.052 156.954 172.052 157.207V157.431C172.052 157.684 172.077 157.933 172.127 158.179C172.177 158.425 172.261 158.647 172.378 158.847C172.499 159.046 172.661 159.206 172.864 159.327C173.071 159.445 173.327 159.504 173.633 159.504ZM179.445 160.316C179.042 160.316 178.677 160.248 178.35 160.113C178.026 159.974 177.746 159.78 177.511 159.53C177.28 159.281 177.102 158.986 176.977 158.644C176.852 158.302 176.79 157.928 176.79 157.522V157.298C176.79 156.828 176.86 156.409 176.998 156.042C177.137 155.672 177.326 155.359 177.565 155.102C177.803 154.846 178.074 154.652 178.377 154.52C178.679 154.388 178.993 154.322 179.317 154.322C179.73 154.322 180.086 154.394 180.385 154.536C180.688 154.679 180.935 154.878 181.127 155.134C181.32 155.387 181.462 155.686 181.555 156.032C181.647 156.374 181.694 156.747 181.694 157.153V157.597H177.378V156.79H180.705V156.715C180.691 156.459 180.638 156.21 180.545 155.968C180.456 155.725 180.314 155.526 180.118 155.369C179.922 155.213 179.655 155.134 179.317 155.134C179.092 155.134 178.886 155.182 178.697 155.279C178.508 155.371 178.346 155.51 178.211 155.695C178.076 155.88 177.971 156.106 177.896 156.374C177.821 156.641 177.784 156.949 177.784 157.298V157.522C177.784 157.796 177.821 158.054 177.896 158.296C177.974 158.535 178.086 158.745 178.232 158.927C178.382 159.108 178.562 159.251 178.772 159.354C178.985 159.457 179.228 159.509 179.498 159.509C179.847 159.509 180.143 159.438 180.385 159.295C180.627 159.153 180.839 158.962 181.021 158.724L181.619 159.199C181.494 159.388 181.336 159.568 181.143 159.739C180.951 159.91 180.714 160.048 180.433 160.155C180.155 160.262 179.826 160.316 179.445 160.316ZM186.768 156.934V157.736H183.713V156.934H186.768ZM183.921 154.429V160.209H182.933V154.429H183.921ZM187.569 154.429V160.209H186.576V154.429H187.569ZM191.517 154.429V160.209H190.523V154.429H191.517ZM193.456 154.429V155.23H188.622V154.429H193.456ZM195.598 157.453H196.666L194.994 160.209H193.926L195.598 157.453ZM196.425 154.429H198.84V160.209H197.852V155.23H196.425C196.144 155.23 195.914 155.279 195.736 155.375C195.558 155.467 195.428 155.588 195.346 155.738C195.265 155.887 195.224 156.042 195.224 156.203C195.224 156.359 195.261 156.511 195.336 156.657C195.411 156.799 195.528 156.917 195.688 157.009C195.849 157.102 196.055 157.148 196.308 157.148H198.119V157.96H196.308C195.977 157.96 195.683 157.915 195.427 157.826C195.17 157.737 194.953 157.615 194.775 157.458C194.597 157.298 194.462 157.111 194.369 156.897C194.276 156.68 194.23 156.445 194.23 156.192C194.23 155.939 194.278 155.706 194.374 155.492C194.474 155.279 194.616 155.092 194.802 154.931C194.99 154.771 195.22 154.648 195.491 154.563C195.765 154.474 196.077 154.429 196.425 154.429ZM204.139 151.913H204.951C204.951 152.262 204.897 152.54 204.79 152.747C204.683 152.95 204.537 153.106 204.352 153.217C204.171 153.327 203.964 153.411 203.733 153.468C203.505 153.525 203.268 153.58 203.022 153.633C202.716 153.697 202.431 153.799 202.168 153.938C201.908 154.073 201.683 154.265 201.495 154.515C201.309 154.764 201.172 155.088 201.083 155.487C200.998 155.886 200.975 156.379 201.014 156.966V157.458H200.202V156.966C200.202 156.308 200.264 155.733 200.389 155.241C200.517 154.75 200.697 154.335 200.928 153.997C201.16 153.658 201.434 153.389 201.751 153.19C202.071 152.991 202.424 152.853 202.809 152.779C203.086 152.725 203.325 152.668 203.524 152.608C203.724 152.544 203.875 152.458 203.978 152.351C204.085 152.245 204.139 152.099 204.139 151.913ZM202.969 154.76C203.346 154.76 203.683 154.826 203.978 154.958C204.274 155.09 204.525 155.273 204.732 155.508C204.938 155.743 205.095 156.021 205.202 156.341C205.312 156.658 205.367 157.004 205.367 157.378V157.495C205.367 157.898 205.308 158.272 205.191 158.617C205.077 158.959 204.908 159.258 204.683 159.514C204.463 159.767 204.192 159.965 203.872 160.107C203.555 160.25 203.193 160.321 202.787 160.321C202.381 160.321 202.018 160.25 201.698 160.107C201.381 159.965 201.11 159.767 200.886 159.514C200.661 159.258 200.49 158.959 200.373 158.617C200.259 158.272 200.202 157.898 200.202 157.495V157.378C200.202 157.289 200.218 157.201 200.25 157.116C200.282 157.031 200.321 156.943 200.368 156.854C200.417 156.765 200.462 156.671 200.501 156.571C200.633 156.251 200.813 155.953 201.041 155.679C201.272 155.405 201.548 155.184 201.868 155.017C202.193 154.846 202.559 154.76 202.969 154.76ZM202.777 155.567C202.413 155.567 202.114 155.651 201.879 155.818C201.648 155.985 201.475 156.208 201.361 156.486C201.247 156.76 201.19 157.057 201.19 157.378V157.495C201.19 157.766 201.222 158.022 201.286 158.264C201.35 158.507 201.446 158.722 201.575 158.911C201.706 159.096 201.872 159.242 202.071 159.349C202.274 159.456 202.513 159.509 202.787 159.509C203.061 159.509 203.298 159.456 203.498 159.349C203.697 159.242 203.861 159.096 203.989 158.911C204.117 158.722 204.213 158.507 204.277 158.264C204.342 158.022 204.374 157.766 204.374 157.495V157.378C204.374 157.136 204.342 156.906 204.277 156.689C204.213 156.471 204.115 156.279 203.984 156.112C203.856 155.944 203.69 155.813 203.487 155.717C203.288 155.617 203.051 155.567 202.777 155.567ZM207.381 155.54V162.431H206.387V154.429H207.295L207.381 155.54ZM211.275 157.271V157.383C211.275 157.803 211.225 158.193 211.125 158.553C211.026 158.909 210.88 159.219 210.687 159.482C210.499 159.746 210.265 159.951 209.988 160.097C209.71 160.243 209.391 160.316 209.031 160.316C208.665 160.316 208.341 160.255 208.059 160.134C207.778 160.013 207.539 159.837 207.344 159.605C207.148 159.374 206.991 159.096 206.873 158.772C206.76 158.448 206.681 158.083 206.638 157.677V157.079C206.681 156.651 206.761 156.268 206.879 155.93C206.996 155.592 207.151 155.303 207.344 155.065C207.539 154.823 207.776 154.639 208.054 154.515C208.332 154.387 208.652 154.322 209.015 154.322C209.379 154.322 209.701 154.394 209.982 154.536C210.264 154.675 210.5 154.874 210.693 155.134C210.885 155.394 211.029 155.706 211.125 156.069C211.225 156.429 211.275 156.829 211.275 157.271ZM210.281 157.383V157.271C210.281 156.982 210.251 156.712 210.191 156.459C210.13 156.203 210.036 155.978 209.907 155.786C209.783 155.59 209.623 155.437 209.427 155.327C209.231 155.213 208.998 155.156 208.727 155.156C208.478 155.156 208.26 155.198 208.075 155.284C207.894 155.369 207.739 155.485 207.611 155.631C207.482 155.774 207.377 155.937 207.295 156.122C207.217 156.304 207.158 156.493 207.119 156.689V158.072C207.19 158.321 207.29 158.556 207.418 158.777C207.546 158.994 207.717 159.171 207.931 159.306C208.145 159.438 208.414 159.504 208.738 159.504C209.005 159.504 209.234 159.448 209.427 159.338C209.623 159.224 209.783 159.069 209.907 158.873C210.036 158.678 210.13 158.453 210.191 158.2C210.251 157.944 210.281 157.672 210.281 157.383ZM213.705 157.453H214.774L213.102 160.209H212.033L213.705 157.453ZM214.533 154.429H216.948V160.209H215.959V155.23H214.533C214.252 155.23 214.022 155.279 213.844 155.375C213.666 155.467 213.536 155.588 213.454 155.738C213.372 155.887 213.331 156.042 213.331 156.203C213.331 156.359 213.369 156.511 213.444 156.657C213.518 156.799 213.636 156.917 213.796 157.009C213.956 157.102 214.163 157.148 214.416 157.148H216.226V157.96H214.416C214.084 157.96 213.791 157.915 213.534 157.826C213.278 157.737 213.061 157.615 212.883 157.458C212.705 157.298 212.569 157.111 212.477 156.897C212.384 156.68 212.338 156.445 212.338 156.192C212.338 155.939 212.386 155.706 212.482 155.492C212.582 155.279 212.724 155.092 212.909 154.931C213.098 154.771 213.328 154.648 213.598 154.563C213.873 154.474 214.184 154.429 214.533 154.429ZM222.294 154.429H223.283L223.197 156.593C223.176 157.141 223.113 157.615 223.01 158.013C222.907 158.412 222.775 158.752 222.615 159.034C222.455 159.311 222.275 159.545 222.075 159.733C221.88 159.922 221.677 160.081 221.466 160.209H220.975L221.002 159.402L221.205 159.397C221.322 159.258 221.436 159.116 221.547 158.97C221.657 158.82 221.758 158.644 221.851 158.441C221.944 158.234 222.02 157.983 222.081 157.688C222.145 157.388 222.186 157.023 222.204 156.593L222.294 154.429ZM222.54 154.429H226.017V160.209H225.029V155.343H222.54V154.429ZM220.751 159.397H226.76V161.913H225.772V160.209H221.739V161.913H220.745L220.751 159.397ZM227.593 157.383V157.26C227.593 156.844 227.654 156.457 227.775 156.101C227.896 155.741 228.07 155.43 228.298 155.166C228.526 154.899 228.802 154.693 229.126 154.547C229.45 154.397 229.813 154.322 230.216 154.322C230.622 154.322 230.987 154.397 231.311 154.547C231.638 154.693 231.916 154.899 232.144 155.166C232.376 155.43 232.552 155.741 232.673 156.101C232.794 156.457 232.855 156.844 232.855 157.26V157.383C232.855 157.8 232.794 158.186 232.673 158.542C232.552 158.898 232.376 159.21 232.144 159.477C231.916 159.74 231.64 159.947 231.316 160.097C230.996 160.243 230.632 160.316 230.227 160.316C229.821 160.316 229.456 160.243 229.131 160.097C228.807 159.947 228.53 159.74 228.298 159.477C228.07 159.21 227.896 158.898 227.775 158.542C227.654 158.186 227.593 157.8 227.593 157.383ZM228.581 157.26V157.383C228.581 157.672 228.615 157.944 228.683 158.2C228.75 158.453 228.852 158.678 228.987 158.873C229.126 159.069 229.299 159.224 229.505 159.338C229.712 159.448 229.952 159.504 230.227 159.504C230.497 159.504 230.734 159.448 230.937 159.338C231.143 159.224 231.314 159.069 231.45 158.873C231.585 158.678 231.687 158.453 231.754 158.2C231.825 157.944 231.861 157.672 231.861 157.383V157.26C231.861 156.975 231.825 156.706 231.754 156.454C231.687 156.197 231.583 155.971 231.444 155.775C231.309 155.576 231.138 155.419 230.932 155.305C230.729 155.191 230.49 155.134 230.216 155.134C229.945 155.134 229.707 155.191 229.5 155.305C229.297 155.419 229.126 155.576 228.987 155.775C228.852 155.971 228.75 156.197 228.683 156.454C228.615 156.706 228.581 156.975 228.581 157.26ZM241.727 152.432V152.987L238.506 160.209H237.464L240.68 153.243H236.471V152.432H241.727ZM245.412 157.383V157.26C245.412 156.844 245.473 156.457 245.594 156.101C245.715 155.741 245.89 155.43 246.117 155.166C246.345 154.899 246.621 154.693 246.945 154.547C247.269 154.397 247.633 154.322 248.035 154.322C248.441 154.322 248.806 154.397 249.13 154.547C249.458 154.693 249.735 154.899 249.963 155.166C250.195 155.43 250.371 155.741 250.492 156.101C250.613 156.457 250.674 156.844 250.674 157.26V157.383C250.674 157.8 250.613 158.186 250.492 158.542C250.371 158.898 250.195 159.21 249.963 159.477C249.735 159.74 249.459 159.947 249.135 160.097C248.815 160.243 248.452 160.316 248.046 160.316C247.64 160.316 247.275 160.243 246.951 160.097C246.627 159.947 246.349 159.74 246.117 159.477C245.89 159.21 245.715 158.898 245.594 158.542C245.473 158.186 245.412 157.8 245.412 157.383ZM246.401 157.26V157.383C246.401 157.672 246.434 157.944 246.502 158.2C246.57 158.453 246.671 158.678 246.807 158.873C246.945 159.069 247.118 159.224 247.325 159.338C247.531 159.448 247.772 159.504 248.046 159.504C248.316 159.504 248.553 159.448 248.756 159.338C248.963 159.224 249.134 159.069 249.269 158.873C249.404 158.678 249.506 158.453 249.573 158.2C249.645 157.944 249.68 157.672 249.68 157.383V157.26C249.68 156.975 249.645 156.706 249.573 156.454C249.506 156.197 249.402 155.971 249.264 155.775C249.128 155.576 248.957 155.419 248.751 155.305C248.548 155.191 248.309 155.134 248.035 155.134C247.764 155.134 247.526 155.191 247.319 155.305C247.116 155.419 246.945 155.576 246.807 155.775C246.671 155.971 246.57 156.197 246.502 156.454C246.434 156.706 246.401 156.975 246.401 157.26ZM252.987 154.429V160.209H251.998V154.429H252.987ZM256.779 154.429L254.039 157.741H252.655L252.506 156.876H253.638L255.577 154.429H256.779ZM255.716 160.209L253.59 157.591L254.226 156.876L256.971 160.209H255.716ZM260.187 154.429V160.209H259.193V154.429H260.187ZM262.126 154.429V155.23H257.292V154.429H262.126ZM264.268 157.453H265.336L263.664 160.209H262.596L264.268 157.453ZM265.096 154.429H267.51V160.209H266.522V155.23H265.096C264.814 155.23 264.585 155.279 264.407 155.375C264.229 155.467 264.099 155.588 264.017 155.738C263.935 155.887 263.894 156.042 263.894 156.203C263.894 156.359 263.931 156.511 264.006 156.657C264.081 156.799 264.198 156.917 264.359 157.009C264.519 157.102 264.725 157.148 264.978 157.148H266.789V157.96H264.978C264.647 157.96 264.353 157.915 264.097 157.826C263.841 157.737 263.623 157.615 263.445 157.458C263.267 157.298 263.132 157.111 263.039 156.897C262.947 156.68 262.9 156.445 262.9 156.192C262.9 155.939 262.949 155.706 263.045 155.492C263.144 155.279 263.287 155.092 263.472 154.931C263.661 154.771 263.89 154.648 264.161 154.563C264.435 154.474 264.747 154.429 265.096 154.429ZM272.809 151.913H273.621C273.621 152.262 273.567 152.54 273.461 152.747C273.354 152.95 273.208 153.106 273.023 153.217C272.841 153.327 272.634 153.411 272.403 153.468C272.175 153.525 271.938 153.58 271.693 153.633C271.386 153.697 271.101 153.799 270.838 153.938C270.578 154.073 270.354 154.265 270.165 154.515C269.98 154.764 269.843 155.088 269.754 155.487C269.668 155.886 269.645 156.379 269.684 156.966V157.458H268.872V156.966C268.872 156.308 268.935 155.733 269.059 155.241C269.187 154.75 269.367 154.335 269.599 153.997C269.83 153.658 270.104 153.389 270.421 153.19C270.742 152.991 271.094 152.853 271.479 152.779C271.757 152.725 271.995 152.668 272.195 152.608C272.394 152.544 272.545 152.458 272.649 152.351C272.756 152.245 272.809 152.099 272.809 151.913ZM271.639 154.76C272.017 154.76 272.353 154.826 272.649 154.958C272.944 155.09 273.195 155.273 273.402 155.508C273.608 155.743 273.765 156.021 273.872 156.341C273.982 156.658 274.037 157.004 274.037 157.378V157.495C274.037 157.898 273.979 158.272 273.861 158.617C273.747 158.959 273.578 159.258 273.354 159.514C273.133 159.767 272.862 159.965 272.542 160.107C272.225 160.25 271.864 160.321 271.458 160.321C271.052 160.321 270.688 160.25 270.368 160.107C270.051 159.965 269.78 159.767 269.556 159.514C269.332 159.258 269.161 158.959 269.043 158.617C268.929 158.272 268.872 157.898 268.872 157.495V157.378C268.872 157.289 268.888 157.201 268.92 157.116C268.952 157.031 268.992 156.943 269.038 156.854C269.088 156.765 269.132 156.671 269.171 156.571C269.303 156.251 269.483 155.953 269.711 155.679C269.942 155.405 270.218 155.184 270.539 155.017C270.863 154.846 271.23 154.76 271.639 154.76ZM271.447 155.567C271.084 155.567 270.785 155.651 270.549 155.818C270.318 155.985 270.145 156.208 270.031 156.486C269.917 156.76 269.86 157.057 269.86 157.378V157.495C269.86 157.766 269.892 158.022 269.957 158.264C270.021 158.507 270.117 158.722 270.245 158.911C270.377 159.096 270.542 159.242 270.742 159.349C270.945 159.456 271.183 159.509 271.458 159.509C271.732 159.509 271.969 159.456 272.168 159.349C272.367 159.242 272.531 159.096 272.659 158.911C272.788 158.722 272.884 158.507 272.948 158.264C273.012 158.022 273.044 157.766 273.044 157.495V157.378C273.044 157.136 273.012 156.906 272.948 156.689C272.884 156.471 272.786 156.279 272.654 156.112C272.526 155.944 272.36 155.813 272.157 155.717C271.958 155.617 271.721 155.567 271.447 155.567ZM276.051 155.54V162.431H275.058V154.429H275.966L276.051 155.54ZM279.945 157.271V157.383C279.945 157.803 279.895 158.193 279.796 158.553C279.696 158.909 279.55 159.219 279.358 159.482C279.169 159.746 278.936 159.951 278.658 160.097C278.38 160.243 278.061 160.316 277.702 160.316C277.335 160.316 277.011 160.255 276.73 160.134C276.448 160.013 276.21 159.837 276.014 159.605C275.818 159.374 275.661 159.096 275.544 158.772C275.43 158.448 275.351 158.083 275.309 157.677V157.079C275.351 156.651 275.432 156.268 275.549 155.93C275.667 155.592 275.822 155.303 276.014 155.065C276.21 154.823 276.447 154.639 276.724 154.515C277.002 154.387 277.323 154.322 277.686 154.322C278.049 154.322 278.371 154.394 278.653 154.536C278.934 154.675 279.171 154.874 279.363 155.134C279.555 155.394 279.699 155.706 279.796 156.069C279.895 156.429 279.945 156.829 279.945 157.271ZM278.952 157.383V157.271C278.952 156.982 278.921 156.712 278.861 156.459C278.8 156.203 278.706 155.978 278.578 155.786C278.453 155.59 278.293 155.437 278.097 155.327C277.901 155.213 277.668 155.156 277.397 155.156C277.148 155.156 276.931 155.198 276.746 155.284C276.564 155.369 276.409 155.485 276.281 155.631C276.153 155.774 276.048 155.937 275.966 156.122C275.887 156.304 275.829 156.493 275.79 156.689V158.072C275.861 158.321 275.96 158.556 276.089 158.777C276.217 158.994 276.388 159.171 276.601 159.306C276.815 159.438 277.084 159.504 277.408 159.504C277.675 159.504 277.905 159.448 278.097 159.338C278.293 159.224 278.453 159.069 278.578 158.873C278.706 158.678 278.8 158.453 278.861 158.2C278.921 157.944 278.952 157.672 278.952 157.383ZM282.376 157.453H283.444L281.772 160.209H280.704L282.376 157.453ZM283.204 154.429H285.618V160.209H284.63V155.23H283.204C282.922 155.23 282.693 155.279 282.514 155.375C282.336 155.467 282.206 155.588 282.125 155.738C282.043 155.887 282.002 156.042 282.002 156.203C282.002 156.359 282.039 156.511 282.114 156.657C282.189 156.799 282.306 156.917 282.466 157.009C282.627 157.102 282.833 157.148 283.086 157.148H284.897V157.96H283.086C282.755 157.96 282.461 157.915 282.205 157.826C281.948 157.737 281.731 157.615 281.553 157.458C281.375 157.298 281.24 157.111 281.147 156.897C281.054 156.68 281.008 156.445 281.008 156.192C281.008 155.939 281.056 155.706 281.152 155.492C281.252 155.279 281.395 155.092 281.58 154.931C281.768 154.771 281.998 154.648 282.269 154.563C282.543 154.474 282.855 154.429 283.204 154.429Z" fill="#333333"/>
<path d="M191.135 29L35.8397 186.67L35.3435 49.759C34.236 36.6116 35.1038 30.4254 48.7396 29H191.135Z" fill="#E11C4B"/>
<path d="M239.865 232L395.16 74.3301L395.656 211.241C396.764 224.388 395.896 230.575 382.26 232L239.865 232Z" fill="#E11C4B"/>
<path d="M284.617 77.2863L326.883 29.9854H377.105L284.617 77.2863Z" fill="#E11C4B"/>
<path d="M150.361 184.699L108.095 232H57.8733L150.361 184.699Z" fill="#E11C4B"/>
<defs>
<filter id="filter0_d_1_911" x="0.192884" y="0.150609" width="430.614" height="271.647" filterUnits="userSpaceOnUse" color-interpolation-filters="sRGB">
<feFlood flood-opacity="0" result="BackgroundImageFix"/>
<feColorMatrix in="SourceAlpha" type="matrix" values="0 0 0 0 0 0 0 0 0 0 0 0 0 0 0 0 0 0 127 0" result="hardAlpha"/>
<feMorphology radius="3.97796" operator="dilate" in="SourceAlpha" result="effect1_dropShadow_1_911"/>
<feOffset dy="5.96694"/>
<feGaussianBlur stdDeviation="14.9174"/>
<feColorMatrix type="matrix" values="0 0 0 0 0.125 0 0 0 0 0.125 0 0 0 0 0.125 0 0 0 0.1 0"/>
<feBlend mode="normal" in2="BackgroundImageFix" result="effect1_dropShadow_1_911"/>
<feBlend mode="normal" in="SourceGraphic" in2="effect1_dropShadow_1_911" result="shape"/>
</filter>
</defs>
</svg>
